<?xml version="1.0" encoding="utf-8"?>
<!-- Generator: Adobe Illustrator 16.0.0, SVG Export Plug-In . SVG Version: 6.00 Build 0)  -->
<!DOCTYPE svg PUBLIC "-//W3C//DTD SVG 1.1//EN" "http://www.w3.org/Graphics/SVG/1.1/DTD/svg11.dtd">
<svg version="1.1" id="Layer_1" xmlns="http://www.w3.org/2000/svg" xmlns:xlink="http://www.w3.org/1999/xlink" x="0px" y="0px"
	 width="48px" height="48px" viewBox="0 0 48 48" enable-background="new 0 0 48 48" xml:space="preserve">
<g>
	<defs>
		<rect id="SVGID_1_" width="48" height="48"/>
	</defs>
	<clipPath id="SVGID_2_">
		<use xlink:href="#SVGID_1_"  overflow="visible"/>
	</clipPath>
	<path clip-path="url(#SVGID_2_)" fill="#4076BB" d="M47.549,22.427l-22.5-22c-0.583-0.569-1.515-0.569-2.098,0l-22.5,22
		c-0.436,0.427-0.57,1.074-0.341,1.639C0.341,24.631,0.89,25,1.5,25H6v22c0,0.552,0.447,1,1,1h34c0.553,0,1-0.448,1-1V25h4.5
		c0.61,0,1.159-0.369,1.39-0.934C48.119,23.501,47.985,22.854,47.549,22.427 M30,34v11H18V34c0-0.552,0.447-1,1-1h10
		C29.553,33,30,33.448,30,34"/>
</g>
</svg>
