<?xml version="1.0" encoding="utf-8"?>
<!-- Generator: Adobe Illustrator 16.0.0, SVG Export Plug-In . SVG Version: 6.00 Build 0)  -->
<!DOCTYPE svg PUBLIC "-//W3C//DTD SVG 1.1//EN" "http://www.w3.org/Graphics/SVG/1.1/DTD/svg11.dtd">
<svg version="1.1" id="Layer_1" xmlns="http://www.w3.org/2000/svg" xmlns:xlink="http://www.w3.org/1999/xlink" x="0px" y="0px"
	 width="42px" height="42px" viewBox="0 0 42 42" enable-background="new 0 0 42 42" xml:space="preserve">
<path fill="#EA583F" d="M21,0C9.402,0,0,9.402,0,21c0,11.598,9.402,21,21,21c11.599,0,21-9.402,21-21C42,9.402,32.599,0,21,0z
	 M21,39.948C10.535,39.948,2.052,31.465,2.052,21S10.535,2.052,21,2.052S39.948,10.535,39.948,21S31.465,39.948,21,39.948z"/>
<polygon fill="#EA583F" points="10.909,26.503 20.944,16.467 30.98,26.503 34.112,26.503 21,13.391 7.888,26.503 "/>
</svg>
