<?xml version="1.0" encoding="utf-8"?>
<!-- Generator: Adobe Illustrator 16.0.0, SVG Export Plug-In . SVG Version: 6.00 Build 0)  -->
<!DOCTYPE svg PUBLIC "-//W3C//DTD SVG 1.1//EN" "http://www.w3.org/Graphics/SVG/1.1/DTD/svg11.dtd">
<svg version="1.1" id="Layer_1" xmlns="http://www.w3.org/2000/svg" xmlns:xlink="http://www.w3.org/1999/xlink" x="0px" y="0px"
	 width="82.668px" height="82.668px" viewBox="0 0 82.668 82.668" enable-background="new 0 0 82.668 82.668" xml:space="preserve">
<g>
	<defs>
		<rect id="SVGID_1_" width="82.668" height="82.668"/>
	</defs>
	<clipPath id="SVGID_2_">
		<use xlink:href="#SVGID_1_"  overflow="visible"/>
	</clipPath>
	<path clip-path="url(#SVGID_2_)" fill="#16509F" d="M41.334,0C18.505,0,0,18.505,0,41.334s18.505,41.334,41.334,41.334
		c22.828,0,41.334-18.505,41.334-41.334S64.162,0,41.334,0 M41.334,77.334c-19.883,0-36-16.117-36-36s16.117-36,36-36
		c19.882,0,36,16.117,36,36S61.216,77.334,41.334,77.334"/>
	<path clip-path="url(#SVGID_2_)" fill="#16509F" d="M41.728,31.152c2.891,0,5.502,1.184,7.381,3.092h12.889v-5.26H62
		c0-4.422-3.586-8.006-8.008-8.006H32.108v10.094h-1.641V20.979h-0.949c-0.062,0-0.123,0.002-0.185,0.004v10.09h-1.641v-9.883
		c-0.398,0.094-0.785,0.215-1.156,0.365v9.518h-1.643v-8.621c-2.045,1.449-3.383,3.834-3.383,6.533v5.26h12.838
		C36.228,32.336,38.838,31.152,41.728,31.152 M51.44,25.609c0-0.709,0.574-1.283,1.285-1.283h4.328c0.709,0,1.285,0.574,1.285,1.283
		v4.426c0,0.709-0.576,1.283-1.285,1.283h-4.328c-0.711,0-1.285-0.574-1.285-1.283V25.609z"/>
	<path clip-path="url(#SVGID_2_)" fill="#16509F" d="M46.984,35.512c-0.586-0.512-1.247-0.941-1.963-1.268
		c-1.004-0.457-2.12-0.713-3.293-0.713c-1.172,0-2.287,0.256-3.291,0.713C37.72,34.57,37.058,35,36.474,35.512
		c-1.67,1.465-2.727,3.611-2.727,6c0,4.4,3.58,7.98,7.981,7.98c4.402,0,7.982-3.58,7.982-7.98
		C49.71,39.123,48.653,36.977,46.984,35.512 M41.755,47.41c-3.258,0-5.898-2.641-5.898-5.898s2.64-5.898,5.898-5.898
		s5.898,2.641,5.898,5.898S45.013,47.41,41.755,47.41"/>
	<path clip-path="url(#SVGID_2_)" fill="#16509F" d="M29.519,61.676h24.473c4.422,0,8.007-3.586,8.007-8.008V35.512H50.17
		c1.205,1.693,1.918,3.764,1.918,6c0,5.721-4.638,10.359-10.361,10.359c-5.721,0-10.359-4.639-10.359-10.359
		c0-2.236,0.711-4.307,1.918-6H21.511v18.156C21.511,58.09,25.097,61.676,29.519,61.676"/>
</g>
</svg>
