<?xml version="1.0" encoding="utf-8"?>
<!-- Generator: Adobe Illustrator 16.0.0, SVG Export Plug-In . SVG Version: 6.00 Build 0)  -->
<!DOCTYPE svg PUBLIC "-//W3C//DTD SVG 1.1//EN" "http://www.w3.org/Graphics/SVG/1.1/DTD/svg11.dtd">
<svg version="1.1" id="Layer_1" xmlns="http://www.w3.org/2000/svg" xmlns:xlink="http://www.w3.org/1999/xlink" x="0px" y="0px"
	 width="48px" height="36px" viewBox="0 0 48 36" enable-background="new 0 0 48 36" xml:space="preserve">
<g>
	<defs>
		<rect id="SVGID_1_" width="48" height="36"/>
	</defs>
	<clipPath id="SVGID_2_">
		<use xlink:href="#SVGID_1_"  overflow="visible"/>
	</clipPath>
	<path clip-path="url(#SVGID_2_)" fill="#4076BB" d="M44,0H4C1.791,0,0,1.791,0,4v28c0,2.21,1.791,4,4,4h40c2.209,0,4-1.79,4-4V4
		C48,1.791,46.209,0,44,0 M45.061,5.061L30.718,19.403c-1.794,1.795-4.18,2.783-6.718,2.783c-2.537,0-4.923-0.988-6.717-2.783
		L2.94,5.061c-0.586-0.586-0.586-1.535,0-2.121c0.586-0.586,1.535-0.586,2.121,0l14.343,14.343c1.228,1.227,2.86,1.904,4.596,1.904
		c1.737,0,3.37-0.677,4.596-1.904L42.939,2.939c0.586-0.586,1.535-0.586,2.121,0S45.646,4.475,45.061,5.061"/>
</g>
</svg>
