<?xml version="1.0" encoding="utf-8"?>
<!-- Generator: Adobe Illustrator 16.0.0, SVG Export Plug-In . SVG Version: 6.00 Build 0)  -->
<!DOCTYPE svg PUBLIC "-//W3C//DTD SVG 1.1//EN" "http://www.w3.org/Graphics/SVG/1.1/DTD/svg11.dtd">
<svg version="1.1" id="Layer_1" xmlns="http://www.w3.org/2000/svg" xmlns:xlink="http://www.w3.org/1999/xlink" x="0px" y="0px"
	 width="48px" height="48px" viewBox="0 0 48 48" enable-background="new 0 0 48 48" xml:space="preserve">
<g>
	<defs>
		<rect id="SVGID_1_" width="48" height="48"/>
	</defs>
	<clipPath id="SVGID_2_">
		<use xlink:href="#SVGID_1_"  overflow="visible"/>
	</clipPath>
	<path clip-path="url(#SVGID_2_)" fill="#4076BB" d="M45.906,34.869L35.35,31.523c-0.894-0.281-1.86-0.047-2.521,0.615l-3.781,3.78
		c-0.32,0.321-0.813,0.387-1.205,0.16c-1.487-0.856-4.963-2.97-8.957-6.964s-6.108-7.47-6.964-8.957
		c-0.226-0.393-0.162-0.883,0.158-1.203l3.571-3.571c0.792-0.792,1.073-1.956,0.735-3.024L13.131,2.094
		C12.736,0.847,11.579,0,10.271,0H7.848C5.573,0.03,0,6.864,0,11.323c0,2.684,0.91,12.352,12.613,24.055
		C24.324,47.09,33.993,48,36.677,48C41.136,48,47.97,42.428,48,40.139v-2.409C48,36.421,47.152,35.264,45.906,34.869"/>
</g>
</svg>
