<?xml version="1.0" encoding="utf-8"?>
<!-- Generator: Adobe Illustrator 16.0.0, SVG Export Plug-In . SVG Version: 6.00 Build 0)  -->
<!DOCTYPE svg PUBLIC "-//W3C//DTD SVG 1.1//EN" "http://www.w3.org/Graphics/SVG/1.1/DTD/svg11.dtd">
<svg version="1.1" id="Layer_1" xmlns="http://www.w3.org/2000/svg" xmlns:xlink="http://www.w3.org/1999/xlink" x="0px" y="0px"
	 width="82.668px" height="82.668px" viewBox="0 0 82.668 82.668" enable-background="new 0 0 82.668 82.668" xml:space="preserve">
<g>
	<defs>
		<rect id="SVGID_1_" width="82.668" height="82.668"/>
	</defs>
	<clipPath id="SVGID_2_">
		<use xlink:href="#SVGID_1_"  overflow="visible"/>
	</clipPath>
	<path clip-path="url(#SVGID_2_)" fill="#16509F" d="M41.334,0C18.505,0,0,18.505,0,41.334s18.505,41.334,41.334,41.334
		c22.828,0,41.334-18.505,41.334-41.334S64.162,0,41.334,0 M41.334,77.334c-19.883,0-36-16.117-36-36s16.117-36,36-36
		c19.882,0,36,16.117,36,36S61.216,77.334,41.334,77.334"/>
	<path clip-path="url(#SVGID_2_)" fill="#16509F" d="M47.273,35.918c0.73,0,1.744-0.379,2.791-1.621v1.434h2.412V22.75h-2.412v9.852
		c-0.295,0.369-0.949,0.972-1.42,0.972c-0.517,0-0.642-0.351-0.642-0.873v-9.953h-2.415V33.6
		C45.588,34.881,45.98,35.918,47.273,35.918"/>
	<path clip-path="url(#SVGID_2_)" fill="#16509F" d="M36.534,32.492c0,2.288,1.197,3.479,3.537,3.479
		c1.941,0,3.468-1.297,3.468-3.479v-6.361c0-2.033-1.512-3.488-3.468-3.488c-2.127,0-3.537,1.404-3.537,3.488V32.492z
		 M39.018,26.344c0-0.711,0.328-1.238,1.006-1.238c0.74,0,1.057,0.511,1.057,1.238v6.039c0,0.707-0.36,1.229-1.01,1.229
		c-0.666,0-1.053-0.545-1.053-1.229V26.344z"/>
	<polygon clip-path="url(#SVGID_2_)" fill="#16509F" points="30.775,35.73 33.495,35.73 33.495,28.591 36.656,18.132 33.896,18.132 
		32.154,25.167 30.279,18.132 27.543,18.132 30.775,28.591 	"/>
	<path clip-path="url(#SVGID_2_)" fill="#16509F" d="M55.727,38.683H27.279c-3.056,0-5.533,2.479-5.533,5.536v13.98
		c0,3.057,2.477,5.533,5.533,5.533h28.447c3.057,0,5.533-2.477,5.533-5.533v-13.98C61.26,41.162,58.783,38.683,55.727,38.683
		 M31.07,59.59h-2.588V45.263h-2.679V42.83h7.945v2.433H31.07V59.59z M40.277,59.59h-2.299v-1.363
		c-0.423,0.502-0.865,0.885-1.322,1.148c-1.238,0.709-2.939,0.695-2.939-1.814V47.229h2.299v9.475c0,0.498,0.121,0.834,0.611,0.834
		c0.447,0,1.072-0.574,1.351-0.926v-9.383h2.299V59.59z M49.125,57.029c0,1.529-0.572,2.717-2.102,2.717
		c-0.842,0-1.543-0.307-2.184-1.105v0.949h-2.32V42.83h2.32v5.396c0.518-0.633,1.223-1.154,2.043-1.154
		c1.684,0,2.242,1.422,2.242,3.098V57.029z M57.621,53.699h-4.396v2.332c0,0.928,0.077,1.729,1.003,1.729
		c0.971,0,1.027-0.652,1.027-1.729v-0.859h2.365v0.93c0,2.381-1.023,3.824-3.445,3.824c-2.195,0-3.316-1.6-3.316-3.824v-5.549
		c0-2.148,1.416-3.637,3.491-3.637c2.204,0,3.271,1.4,3.271,3.637V53.699z"/>
	<path clip-path="url(#SVGID_2_)" fill="#16509F" d="M54.252,49.08c-0.852,0-1.027,0.6-1.027,1.449v1.25h2.031v-1.25
		C55.256,49.691,55.076,49.08,54.252,49.08"/>
	<path clip-path="url(#SVGID_2_)" fill="#16509F" d="M45.314,49.156c-0.162,0.082-0.318,0.207-0.475,0.377v7.703
		c0.188,0.201,0.37,0.348,0.545,0.436c0.373,0.189,0.922,0.205,1.174-0.127c0.135-0.174,0.201-0.457,0.201-0.852v-6.385
		c0-0.416-0.084-0.734-0.246-0.949C46.236,48.992,45.717,48.953,45.314,49.156"/>
</g>
</svg>
