<?xml version="1.0" encoding="utf-8"?>
<!-- Generator: Adobe Illustrator 16.0.0, SVG Export Plug-In . SVG Version: 6.00 Build 0)  -->
<!DOCTYPE svg PUBLIC "-//W3C//DTD SVG 1.1//EN" "http://www.w3.org/Graphics/SVG/1.1/DTD/svg11.dtd">
<svg version="1.1" id="Layer_1" xmlns="http://www.w3.org/2000/svg" xmlns:xlink="http://www.w3.org/1999/xlink" x="0px" y="0px"
	 width="82.668px" height="82.668px" viewBox="0 0 82.668 82.668" enable-background="new 0 0 82.668 82.668" xml:space="preserve">
<g>
	<defs>
		<rect id="SVGID_1_" width="82.668" height="82.668"/>
	</defs>
	<clipPath id="SVGID_2_">
		<use xlink:href="#SVGID_1_"  overflow="visible"/>
	</clipPath>
	<path clip-path="url(#SVGID_2_)" fill="#16509F" d="M41.334,0C18.505,0,0,18.505,0,41.334s18.505,41.334,41.334,41.334
		c22.828,0,41.334-18.505,41.334-41.334S64.162,0,41.334,0 M41.334,77.334c-19.883,0-36-16.117-36-36s16.117-36,36-36
		c19.882,0,36,16.117,36,36S61.216,77.334,41.334,77.334"/>
	<path clip-path="url(#SVGID_2_)" fill="#16509F" d="M35.477,64.586h9.297V41.305h6.486l0.691-7.795h-7.178v-4.44
		c0-1.838,0.369-2.564,2.146-2.564h5.031v-8.09h-6.438c-6.918,0-10.037,3.047-10.037,8.879v6.215h-4.836v7.892h4.836V64.586z"/>
</g>
</svg>
