<?xml version="1.0" encoding="utf-8"?>
<!-- Generator: Adobe Illustrator 16.0.0, SVG Export Plug-In . SVG Version: 6.00 Build 0)  -->
<!DOCTYPE svg PUBLIC "-//W3C//DTD SVG 1.1//EN" "http://www.w3.org/Graphics/SVG/1.1/DTD/svg11.dtd">
<svg version="1.1" id="Layer_1" xmlns="http://www.w3.org/2000/svg" xmlns:xlink="http://www.w3.org/1999/xlink" x="0px" y="0px"
	 width="82.668px" height="82.668px" viewBox="0 0 82.668 82.668" enable-background="new 0 0 82.668 82.668" xml:space="preserve">
<g>
	<defs>
		<rect id="SVGID_1_" width="82.668" height="82.668"/>
	</defs>
	<clipPath id="SVGID_2_">
		<use xlink:href="#SVGID_1_"  overflow="visible"/>
	</clipPath>
	<path clip-path="url(#SVGID_2_)" fill="#16509F" d="M41.334,0C18.505,0,0,18.505,0,41.334s18.505,41.334,41.334,41.334
		c22.828,0,41.334-18.505,41.334-41.334S64.162,0,41.334,0 M41.334,77.334c-19.883,0-36-16.117-36-36s16.117-36,36-36
		c19.882,0,36,16.117,36,36S61.216,77.334,41.334,77.334"/>
	<path clip-path="url(#SVGID_2_)" fill="#16509F" d="M30.366,46.623c0.596,0.244,1.131,0.01,1.305-0.65
		c0.119-0.457,0.404-1.611,0.531-2.092c0.176-0.654,0.107-0.883-0.375-1.451c-1.049-1.239-1.719-2.842-1.719-5.112
		c0-6.584,4.926-12.478,12.828-12.478c6.996,0,10.84,4.275,10.84,9.986c0,7.512-3.323,13.852-8.26,13.852
		c-2.726,0-4.765-2.254-4.113-5.018c0.785-3.301,2.301-6.863,2.301-9.246c0-2.133-1.146-3.912-3.515-3.912
		c-2.787,0-5.025,2.883-5.025,6.744c0,2.459,0.832,4.123,0.832,4.123s-2.852,12.082-3.352,14.197c-0.996,4.213-0.15,9.379-0.078,9.9
		c0.043,0.311,0.44,0.383,0.619,0.15c0.258-0.336,3.576-4.434,4.703-8.527c0.321-1.158,1.834-7.16,1.834-7.16
		c0.905,1.727,3.551,3.246,6.364,3.246c8.377,0,14.058-7.635,14.058-17.856c0-7.728-6.545-14.926-16.494-14.926
		c-12.379,0-18.621,8.875-18.621,16.276C25.03,41.152,26.727,45.139,30.366,46.623"/>
</g>
</svg>
